HIERARCHY
ROOT hip
{
  OFFSET 0 0 0
  CHANNELS 6 Xposition Yposition Zposition Zrotation Yrotation Xrotation
  JOINT abdomen
  {
    OFFSET 0 20.6881 -0.73152
    CHANNELS 3 Zrotation Xrotation Yrotation
    JOINT chest
    {
      OFFSET 0 11.7043 -0.48768
      CHANNELS 3 Zrotation Xrotation Yrotation
      JOINT neck
      {
        OFFSET 0 22.1894 -2.19456
        CHANNELS 3 Zrotation Xrotation Yrotation
        JOINT head
        {
          OFFSET -0.24384 7.07133 1.2192
          CHANNELS 3 Zrotation Xrotation Yrotation
          JOINT leftEye
          {
            OFFSET 4.14528 8.04674 8.04672
            CHANNELS 3 Zrotation Xrotation Yrotation
            End Site
            {
              OFFSET 1 0 0
            }
          }
          JOINT rightEye
          {
            OFFSET -3.6576 8.04674 8.04672
            CHANNELS 3 Zrotation Xrotation Yrotation
            End Site
            {
              OFFSET 1 0 0
            }
          }
        }
      }
      JOINT rCollar
      {
        OFFSET -2.68224 19.2634 -4.8768
        CHANNELS 3 Zrotation Xrotation Yrotation
        JOINT rShldr
        {
          OFFSET -8.77824 -1.95073 1.46304
          CHANNELS 3 Zrotation Xrotation Yrotation
          JOINT rForeArm
          {
            OFFSET -28.1742 -1.7115 0.48768
            CHANNELS 3 Zrotation Xrotation Yrotation
            JOINT rHand
            {
              OFFSET -22.5879 0.773209 7.07136
              CHANNELS 3 Zrotation Xrotation Yrotation
              JOINT rThumb1
              {
                OFFSET -1.2192 -0.487915 3.41376
                CHANNELS 3 Zrotation Xrotation Yrotation
                JOINT rThumb2
                {
                  OFFSET -3.37035 -0.52449 3.41376
                  CHANNELS 3 Zrotation Xrotation Yrotation
                  End Site
                  {
                    OFFSET -1.78271 -1.18214 1.43049
                  }
                }
              }
              JOINT rIndex1
              {
                OFFSET -7.75947 0.938293 5.60832
                CHANNELS 3 Zrotation Xrotation Yrotation
                JOINT rIndex2
                {
                  OFFSET -2.54057 -0.884171 1.56538
                  CHANNELS 3 Zrotation Xrotation Yrotation
                  End Site
                  {
                    OFFSET -1.62519 -0.234802 1.16502
                  }
                }
              }
              JOINT rMid1
              {
                OFFSET -8.24714 1.18213 3.41376
                CHANNELS 3 Zrotation Xrotation Yrotation
                JOINT rMid2
                {
                  OFFSET -3.10165 -0.590103 1.0647
                  CHANNELS 3 Zrotation Xrotation Yrotation
                  End Site
                  {
                    OFFSET -2.48547 -0.328903 0.83742
                  }
                }
              }
              JOINT rRing1
              {
                OFFSET -8.82822 0.546677 1.51678
                CHANNELS 3 Zrotation Xrotation Yrotation
                JOINT rRing2
                {
                  OFFSET -2.60934 -0.819778 -0.0198488
                  CHANNELS 3 Zrotation Xrotation Yrotation
                  End Site
                  {
                    OFFSET -2.33842 -0.294052 0.168128
                  }
                }
              }
              JOINT rPinky1
              {
                OFFSET -8.27202 -0.0477905 -0.4584
                CHANNELS 3 Zrotation Xrotation Yrotation
                JOINT rPinky2
                {
                  OFFSET -1.82734 -0.647385 -0.700984
                  CHANNELS 3 Zrotation Xrotation Yrotation
                  End Site
                  {
                    OFFSET -1.69225 -0.51767 -0.607171
                  }
                }
              }
            }
          }
        }
      }
      JOINT lCollar
      {
        OFFSET 2.68224 19.2634 -4.8768
        CHANNELS 3 Zrotation Xrotation Yrotation
        JOINT lShldr
        {
          OFFSET 8.77824 -1.95073 1.46304
          CHANNELS 3 Zrotation Xrotation Yrotation
          JOINT lForeArm
          {
            OFFSET 28.1742 -1.7115 0.48768
            CHANNELS 3 Zrotation Xrotation Yrotation
            JOINT lHand
            {
              OFFSET 22.5879 0.773209 7.07136
              CHANNELS 3 Zrotation Xrotation Yrotation
              JOINT lThumb1
              {
                OFFSET 1.2192 -0.487915 3.41376
                CHANNELS 3 Zrotation Xrotation Yrotation
                JOINT lThumb2
                {
                  OFFSET 3.37035 -0.52449 3.41376
                  CHANNELS 3 Zrotation Xrotation Yrotation
                  End Site
                  {
                    OFFSET 1.78271 -1.18214 1.43049
                  }
                }
              }
              JOINT lIndex1
              {
                OFFSET 7.75947 0.938293 5.60832
                CHANNELS 3 Zrotation Xrotation Yrotation
                JOINT lIndex2
                {
                  OFFSET 2.54057 -0.884171 1.56538
                  CHANNELS 3 Zrotation Xrotation Yrotation
                  End Site
                  {
                    OFFSET 1.62519 -0.234802 1.16502
                  }
                }
              }
              JOINT lMid1
              {
                OFFSET 8.24714 1.18213 3.41376
                CHANNELS 3 Zrotation Xrotation Yrotation
                JOINT lMid2
                {
                  OFFSET 3.10165 -0.590103 1.0647
                  CHANNELS 3 Zrotation Xrotation Yrotation
                  End Site
                  {
                    OFFSET 2.48547 -0.328903 0.83742
                  }
                }
              }
              JOINT lRing1
              {
                OFFSET 8.82822 0.546677 1.51678
                CHANNELS 3 Zrotation Xrotation Yrotation
                JOINT lRing2
                {
                  OFFSET 2.60934 -0.819778 -0.0198488
                  CHANNELS 3 Zrotation Xrotation Yrotation
                  End Site
                  {
                    OFFSET 2.33842 -0.294052 0.168128
                  }
                }
              }
              JOINT lPinky1
              {
                OFFSET 8.27202 -0.0477905 -0.4584
                CHANNELS 3 Zrotation Xrotation Yrotation
                JOINT lPinky2
                {
                  OFFSET 1.82734 -0.647385 -0.700984
                  CHANNELS 3 Zrotation Xrotation Yrotation
                  End Site
                  {
                    OFFSET 1.69225 -0.51767 -0.607171
                  }
                }
              }
            }
          }
        }
      }
    }
  }
  JOINT rButtock
  {
    OFFSET -8.77824 4.35084 1.2192
    CHANNELS 3 Zrotation Xrotation Yrotation
    JOINT rThigh
    {
      OFFSET 0 -1.70687 -2.19456
      CHANNELS 3 Zrotation Xrotation Yrotation
      JOINT rShin
      {
        OFFSET 0 -36.8199 0.73152
        CHANNELS 3 Zrotation Xrotation Yrotation
        JOINT rFoot
        {
          OFFSET 0.73152 -45.1104 -5.12064
          CHANNELS 3 Zrotation Xrotation Yrotation
          End Site
          {
            OFFSET -1.1221 -3.69964 12.103
          }
        }
      }
    }
  }
  JOINT lButtock
  {
    OFFSET 8.77824 4.35084 1.2192
    CHANNELS 3 Zrotation Xrotation Yrotation
    JOINT lThigh
    {
      OFFSET 0 -1.70687 -2.19456
      CHANNELS 3 Zrotation Xrotation Yrotation
      JOINT lShin
      {
        OFFSET 0 -36.8199 0.73152
        CHANNELS 3 Zrotation Xrotation Yrotation
        JOINT lFoot
        {
          OFFSET -0.73152 -45.1104 -5.12064
          CHANNELS 3 Zrotation Xrotation Yrotation
          End Site
          {
            OFFSET 1.1221 -3.69964 12.103
          }
        }
      }
    }
  }
}
MOTION
Frames:	9
Frame Time:	0.00833333
54.697 50.424 85.4332 178.698 2.3761 -153.676 2.74165 -9.65519 1.52649 1.66346 10.952 -0.956355 -0.0181124 13.47 3.68668 -1.07965 -17.3241 7.6584 -0.0 0.0 0.0 -0.0 0.0 0.0 3.54595e-15 -1.35225e-14 1.75126e-13 68.6728 13.9133 -8.39889 -25.5976 -22.4426 55.1568 -0.0709557 -7.62243 -1.07758 -1.66769e-09 2.09912e-09 1.57071e-09 -2.89057e-09 3.63545e-09 2.71209e-09 -1.66769e-09 2.09912e-09 1.5707e-09 7.73091 5.47488 0.417314 -1.66769e-09 2.09912e-09 1.57072e-09 2.90554 0.965183 0.102902 -1.66768e-09 2.09912e-09 1.57071e-09 10.2786 0.731801 0.0259123 -1.66769e-09 2.09912e-09 1.57073e-09 2.22167 -0.733487 -0.20892 3.41479e-15 -1.3513e-14 1.74927e-13 -50.8105 22.6438 3.00274 14.082 -7.02063 -25.7197 0.00729126 -2.48406 0.349322 6.55084e-10 5.91349e-10 1.17228e-09 1.13533e-09 1.02408e-09 2.02807e-09 6.55081e-10 5.9135e-10 1.17229e-09 -7.73091 5.47488 -0.417314 6.55084e-10 5.91349e-10 1.17228e-09 -2.90554 0.965183 -0.102902 6.55074e-10 5.91348e-10 1.17228e-09 -10.2786 0.731801 -0.0259123 6.55083e-10 5.91353e-10 1.17228e-09 -2.22167 -0.733487 0.20892 -2.03217e-16 0.0 -3.88251e-19 -40.8178 -4.91908 14.4796 0.18764 35.6383 3.98111 9.01154 -32.0815 7.31431 2.03217e-16 0.0 3.88251e-19 65.2307 -59.9578 42.7418 0.248565 45.8727 -2.2984 -10.0012 4.28417 5.13408
54.3874 50.2785 85.164 179.356 2.0665 -153.309 3.03218 -9.34754 1.92396 1.36036 10.7356 -0.840624 -0.122442 13.3338 3.50174 -0.704296 -17.438 7.34238 -0.0 0.0 0.0 -0.0 0.0 0.0 -3.86674e-14 1.6613e-13 1.38811e-13 69.5867 13.8038 -9.00665 -25.599 -22.4461 55.1624 -0.0616142 -7.09577 -1.00235 -3.56933e-09 5.1653e-09 5.53131e-09 -6.20352e-09 8.96119e-09 9.54471e-09 -3.56933e-09 5.1653e-09 5.5313e-09 7.73091 5.47488 0.417314 -3.56933e-09 5.1653e-09 5.53132e-09 2.90554 0.965183 0.102902 -3.56932e-09 5.1653e-09 5.53131e-09 10.2786 0.731801 0.0259123 -3.56933e-09 5.1653e-09 5.53132e-09 2.22167 -0.733487 -0.20892 -3.88352e-14 1.66137e-13 1.38644e-13 -49.1349 23.5241 1.27904 14.2573 -7.16328 -26.0744 0.0103214 -2.92696 0.411712 1.41996e-09 2.06393e-09 2.54055e-09 2.46287e-09 3.5727e-09 4.39296e-09 1.41996e-09 2.06393e-09 2.54057e-09 -7.73091 5.47488 -0.417314 1.41996e-09 2.06393e-09 2.54056e-09 -2.90554 0.965183 -0.102902 1.41995e-09 2.06392e-09 2.54056e-09 -10.2786 0.731801 -0.0259123 1.41996e-09 2.06393e-09 2.54055e-09 -2.22167 -0.733487 0.20892 -2.03217e-16 0.0 -3.88251e-19 -40.2263 -4.92699 15.0215 0.203637 35.4225 4.08504 9.03396 -31.2258 8.2294 2.03217e-16 0.0 3.88251e-19 68.2882 -60.6292 45.7235 0.27122 47.3203 -2.38645 -10.0662 3.99772 4.90387
54.0935 50.1158 84.9446 180.063 1.9283 -152.743 3.17163 -9.04988 2.29193 1.17679 10.5961 -0.742398 -0.193975 13.2116 3.3326 -0.377588 -17.612 7.04414 -0.0 0.0 0.0 -0.0 0.0 0.0 -5.71572e-14 2.76706e-13 1.05803e-13 70.3809 13.7811 -9.51359 -25.6029 -22.4554 55.1775 -0.0550317 -6.67935 -0.94304 -4.56606e-09 6.77958e-09 7.72209e-09 -7.9407e-09 1.17658e-08 1.3324e-08 -4.56606e-09 6.77959e-09 7.72208e-09 7.73091 5.47488 0.417314 -4.56606e-09 6.77958e-09 7.72209e-09 2.90554 0.965183 0.102902 -4.56606e-09 6.77958e-09 7.72209e-09 10.2786 0.731801 0.0259123 -4.56607e-09 6.77958e-09 7.7221e-09 2.22167 -0.733487 -0.20892 -5.73466e-14 2.7671e-13 1.05654e-13 -47.5966 24.1778 -0.387964 14.4497 -7.32298 -26.4631 0.0134756 -3.31241 0.466053 1.81607e-09 2.85703e-09 3.22154e-09 3.1506e-09 4.94531e-09 5.56966e-09 1.81607e-09 2.85703e-09 3.22156e-09 -7.73091 5.47488 -0.417314 1.81607e-09 2.85703e-09 3.22155e-09 -2.90554 0.965183 -0.102902 1.81606e-09 2.85702e-09 3.22155e-09 -10.2786 0.731801 -0.0259123 1.81607e-09 2.85703e-09 3.22154e-09 -2.22167 -0.733487 0.20892 -2.03217e-16 0.0 -3.88251e-19 -39.8541 -4.82055 15.4925 0.218665 35.0364 4.18899 8.97938 -30.2445 8.96764 2.03217e-16 0.0 3.88251e-19 71.0831 -61.1537 48.4784 0.296708 48.5895 -2.46135 -10.1354 3.66702 4.64797
53.8123 49.9506 84.7758 180.774 1.7807 -152.007 3.10802 -8.76037 2.63483 1.14757 10.5776 -0.664103 -0.203742 13.0981 3.1666 -0.121484 -17.8759 6.73093 -0.0 0.0 0.0 -0.0 0.0 0.0 -3.62298e-14 2.94299e-13 7.5384e-14 71.0408 13.8548 -9.90596 -25.6131 -22.4797 55.217 -0.0506508 -6.39581 -0.902692 -4.23922e-09 6.25314e-09 7.3263e-09 -7.37294e-09 1.0853e-08 1.26408e-08 -4.23922e-09 6.25314e-09 7.32629e-09 7.73091 5.47488 0.417314 -4.23922e-09 6.25314e-09 7.3263e-09 2.90554 0.965183 0.102902 -4.23921e-09 6.25314e-09 7.3263e-09 10.2786 0.731801 0.0259123 -4.23922e-09 6.25314e-09 7.32631e-09 2.22167 -0.733487 -0.20892 -3.64222e-14 2.94302e-13 7.52365e-14 -46.2505 24.5177 -2.00851 14.6632 -7.50307 -26.8963 0.0160441 -3.60037 0.50668 1.66072e-09 2.64396e-09 2.87151e-09 2.88162e-09 4.57645e-09 4.96381e-09 1.66071e-09 2.64395e-09 2.87153e-09 -7.73091 5.47488 -0.417314 1.66072e-09 2.64395e-09 2.87152e-09 -2.90554 0.965183 -0.102902 1.6607e-09 2.64395e-09 2.87152e-09 -10.2786 0.731801 -0.0259123 1.66072e-09 2.64396e-09 2.87151e-09 -2.22167 -0.733487 0.20892 -2.03217e-16 0.0 -3.88251e-19 -39.7813 -4.5426 15.8788 0.234848 34.4144 4.29329 8.83307 -29.1269 9.46409 2.03217e-16 0.0 3.88251e-19 73.4643 -61.5521 50.8818 0.321725 49.652 -2.51485 -10.2151 3.26613 4.33216
53.5224 49.8107 84.5727 181.262 1.604 -151.451 2.94858 -8.47144 3.00544 1.19688 10.6373 -0.583641 -0.174754 12.9844 2.99598 0.0792117 -18.1914 6.39495 -0.0 0.0 0.0 -0.0 0.0 0.0 7.52093e-15 2.61997e-13 3.90519e-14 71.6074 14.0184 -10.2273 -25.6269 -22.5125 55.2704 -0.0471673 -6.17467 -0.871227 -3.10049e-09 4.42651e-09 5.42541e-09 -5.39186e-09 7.68301e-09 9.36087e-09 -3.10048e-09 4.42651e-09 5.4254e-09 7.73091 5.47488 0.417314 -3.10049e-09 4.42651e-09 5.42542e-09 2.90554 0.965183 0.102902 -3.10048e-09 4.42651e-09 5.42541e-09 10.2786 0.731801 0.0259123 -3.10049e-09 4.42651e-09 5.42542e-09 2.22167 -0.733487 -0.20892 7.3387e-15 2.61999e-13 3.88966e-14 -45.047 24.6442 -3.60971 14.8967 -7.70203 -27.3747 0.0185806 -3.86565 0.544133 1.18206e-09 1.85153e-09 1.87665e-09 2.05176e-09 3.20486e-09 3.243e-09 1.18205e-09 1.85152e-09 1.87667e-09 -7.73091 5.47488 -0.417314 1.18206e-09 1.85153e-09 1.87666e-09 -2.90554 0.965183 -0.102902 1.18204e-09 1.85152e-09 1.87666e-09 -10.2786 0.731801 -0.0259123 1.18206e-09 1.85153e-09 1.87665e-09 -2.22167 -0.733487 0.20892 -2.03217e-16 0.0 -3.88251e-19 -39.886 -4.16914 16.2382 0.252922 33.6273 4.39618 8.62114 -27.8912 9.80974 2.03217e-16 0.0 3.88251e-19 75.4974 -61.8467 52.9423 0.343032 50.5298 -2.55129 -10.3051 2.82802 4.01694
53.2119 49.6944 84.3147 181.526 1.4861 -151.115 2.73171 -8.1932 3.35459 1.30156 10.708 -0.511787 -0.154142 12.8893 2.85484 0.259541 -18.5207 6.1151 -0.0 0.0 0.0 -0.0 0.0 0.0 5.12297e-14 2.01268e-13 4.79917e-15 72.0904 14.2564 -10.4778 -25.6376 -22.5381 55.3121 -0.0446662 -6.01792 -0.848925 -1.7081e-09 2.21914e-09 3.04601e-09 -2.96942e-09 3.85203e-09 5.25561e-09 -1.70809e-09 2.21914e-09 3.046e-09 7.73091 5.47488 0.417314 -1.70809e-09 2.21914e-09 3.04601e-09 2.90554 0.965183 0.102902 -1.70809e-09 2.21914e-09 3.04601e-09 10.2786 0.731801 0.0259123 -1.7081e-09 2.21914e-09 3.04601e-09 2.22167 -0.733487 -0.20892 5.1067e-14 2.01269e-13 4.62679e-15 -43.982 24.6828 -5.11571 15.139 -7.91148 -27.875 0.0212744 -4.14224 0.583198 6.20025e-10 8.94702e-10 7.20716e-10 1.07715e-09 1.54877e-09 1.24385e-09 6.20018e-10 8.94695e-10 7.20729e-10 -7.73091 5.47488 -0.417314 6.20026e-10 8.94697e-10 7.20725e-10 -2.90554 0.965183 -0.102902 6.20015e-10 8.94691e-10 7.20719e-10 -10.2786 0.731801 -0.0259123 6.20031e-10 8.94695e-10 7.2071e-10 -2.22167 -0.733487 0.20892 -2.03217e-16 0.0 -3.88251e-19 -40.0867 -3.77442 16.5587 0.271693 32.7697 4.49724 8.37873 -26.5563 10.1004 2.03217e-16 0.0 3.88251e-19 77.3054 -62.0616 54.7863 0.361507 51.27 -2.57777 -10.395 2.38609 3.73425
52.886 49.5754 84.0567 181.771 1.555 -150.6 2.49702 -7.93586 3.63327 1.43884 10.7226 -0.459386 -0.188655 12.8319 2.77721 0.457204 -18.8263 5.97102 -0.0 0.0 0.0 -0.0 0.0 0.0 7.20315e-14 1.33583e-13 -1.93815e-14 72.4984 14.5531 -10.6577 -25.6388 -22.5408 55.3164 -0.0432875 -5.92753 -0.836075 -6.2028e-10 5.50497e-10 1.21468e-09 -1.07757e-09 9.56396e-10 2.09642e-09 -6.20278e-10 5.50499e-10 1.21467e-09 7.73091 5.47488 0.417314 -6.20277e-10 5.50499e-10 1.21468e-09 2.90554 0.965183 0.102902 -6.20272e-10 5.505e-10 1.21468e-09 10.2786 0.731801 0.0259123 -6.20281e-10 5.50503e-10 1.21468e-09 2.22167 -0.733487 -0.20892 7.18934e-14 1.33583e-13 -1.95803e-14 -43.0367 24.7611 -6.45694 15.3797 -8.12345 -28.3738 0.024504 -4.46414 0.628679 2.14554e-10 1.88422e-10 -1.12534e-10 3.73907e-10 3.26395e-10 -1.97015e-10 2.14546e-10 1.88416e-10 -1.12522e-10 -7.73091 5.47488 -0.417314 2.14556e-10 1.88418e-10 -1.12525e-10 -2.90554 0.965183 -0.102902 2.14545e-10 1.88413e-10 -1.12532e-10 -10.2786 0.731801 -0.0259123 2.14561e-10 1.88414e-10 -1.12541e-10 -2.22167 -0.733487 0.20892 -2.03217e-16 0.0 -3.88251e-19 -40.2999 -3.43207 16.8283 0.289108 31.9364 4.59612 8.1329 -25.1411 10.428 2.03217e-16 0.0 3.88251e-19 79.0245 -62.2087 56.5504 0.379116 51.9198 -2.60235 -10.4724 1.97387 3.5159
52.5523 49.4962 83.7687 182.151 1.6998 -149.992 2.22262 -7.69517 3.8169 1.64164 10.659 -0.436148 -0.322837 12.847 2.80688 0.677221 -19.1262 6.05341 -0.0 0.0 0.0 -0.0 0.0 0.0 5.60091e-14 4.70131e-14 -3.22711e-14 72.7865 14.9625 -10.7593 -25.6273 -22.5135 55.2717 -0.0434677 -5.9381 -0.837579 5.84821e-11 -4.00428e-10 1.76347e-10 1.01212e-10 -6.92819e-10 3.06337e-10 5.84845e-11 -4.00428e-10 1.76336e-10 7.73091 5.47488 0.417314 5.84858e-11 -4.00427e-10 1.76346e-10 2.90554 0.965183 0.102902 5.84897e-11 -4.00426e-10 1.76343e-10 10.2786 0.731801 0.0259123 5.84792e-11 -4.00422e-10 1.76348e-10 2.22167 -0.733487 -0.20892 5.59104e-14 4.70117e-14 -3.25219e-14 -42.2562 24.8874 -7.59349 15.6186 -8.33801 -28.8709 0.0288418 -4.86468 0.685324 7.87131e-11 -1.63966e-10 -5.26589e-10 1.37962e-10 -2.83155e-10 -9.12396e-10 7.87059e-11 -1.6397e-10 -5.26577e-10 -7.73091 5.47488 -0.417314 7.87159e-11 -1.63969e-10 -5.26577e-10 -2.90554 0.965183 -0.102902 7.87049e-11 -1.63972e-10 -5.26586e-10 -10.2786 0.731801 -0.0259123 7.87196e-11 -1.63972e-10 -5.26594e-10 -2.22167 -0.733487 0.20892 -2.03217e-16 0.0 -3.88251e-19 -40.5414 -3.14208 17.0463 0.30406 31.1243 4.6955 7.89779 -23.584 10.8869 2.03217e-16 0.0 3.88251e-19 80.5974 -62.2627 58.1886 0.395244 52.4377 -2.62188 -10.535 1.6068 3.37985
52.2394 49.5329 83.5275 182.583 1.6108 -149.456 1.90001 -7.46813 3.93571 1.90917 10.5543 -0.434029 -0.520911 12.9145 2.91409 0.905619 -19.4306 6.29807 -0.0 0.0 0.0 -0.0 0.0 0.0 1.79639e-14 -6.4007e-14 -3.78281e-14 72.9647 15.474 -10.7855 -25.6071 -22.4654 55.1934 -0.0449106 -6.0372 -0.851659 6.1112e-10 -1.10195e-09 -6.06895e-10 1.05972e-09 -1.90877e-09 -1.04295e-09 6.11123e-10 -1.10195e-09 -6.06902e-10 7.73091 5.47488 0.417314 6.11124e-10 -1.10195e-09 -6.06897e-10 2.90554 0.965183 0.102902 6.11126e-10 -1.10195e-09 -6.06897e-10 10.2786 0.731801 0.0259123 6.11115e-10 -1.10195e-09 -6.06891e-10 2.22167 -0.733487 -0.20892 1.7918e-14 -6.401e-14 -3.81511e-14 -41.6365 25.0089 -8.56867 15.8601 -8.55824 -29.3771 0.0343985 -5.31765 0.749482 6.8176e-11 -3.81333e-10 -7.68621e-10 1.19064e-10 -6.58794e-10 -1.32986e-09 6.81713e-11 -3.81335e-10 -7.6861e-10 -7.73091 5.47488 -0.417314 6.81792e-11 -3.81333e-10 -7.68608e-10 -2.90554 0.965183 -0.102902 6.81678e-11 -3.81336e-10 -7.68618e-10 -10.2786 0.731801 -0.0259123 6.81808e-11 -3.81335e-10 -7.68625e-10 -2.22167 -0.733487 0.20892 -2.03217e-16 0.0 -3.88251e-19 -40.8413 -2.87129 17.2184 0.317927 30.2925 4.79478 7.64492 -21.8987 11.4045 2.03217e-16 0.0 3.88251e-19 81.9548 -62.2417 59.6299 0.408127 52.8165 -2.63268 -10.5864 1.26505 3.3058
